# xmcd
#
# Track frame offsets:
#	150
#	21415
#	34730
#	47750
#	61747
#	77890
#	89757
#	103780
#	130472
#
# Disc length: 4440 seconds
#
# Revision: 1
# Processed by: cddbd v1.5.1PL0 Copyright (c) Steve Scherf et al.
# Submitted via: audiograbber 1.83.01
#
DISCID=7a115609
DTITLE=Alan Jackson - Some Other Stuff
DYEAR=2003
DGENRE=Country
TTITLE0=Job Description
TTITLE1=Tropical Depression
TTITLE2=Let's Get Back To Me And You
TTITLE3=You Can't Give Up On Love
TTITLE4=Hole In The Wall
TTITLE5=Buicks To The Moon
TTITLE6=When Love Comes Around
TTITLE7=The Sounds
TTITLE8=Computer Data
EXTD=YEAR: 2003
EXTT0=
EXTT1=
EXTT2=
EXTT3=
EXTT4=
EXTT5=
EXTT6=
EXTT7=
EXTT8=
PLAYORDER=
